<svg xmlns="http://www.w3.org/2000/svg" viewBox="0 0 481 232.8"><g fill="#0000ff" stroke="#fff"><path d="M20.51 20.51L20.51 20.51L67.37 67.37L20.51 20.51"/><path d="M20.51 20.51L3.93 3.93C1.81 6.05 0.5 8.99 0.5 12.22L0.5 134.24L67.37 67.37L20.51 20.51"/><path d="M0.5 134.24L47.16 180.9L47.58 181.32C49.68 183.32 52.52 184.55 55.65 184.55C62.12 184.55 67.37 179.3 67.37 172.83L67.37 134.24L0.5 134.24"/><path d="M198.98 59.19L198.76 58.98L143.9 4.11L143.55 3.77C141.45 1.75 138.59 0.5 135.44 0.5L12.22 0.5C8.99 0.5 6.05 1.81 3.93 3.93L20.51 20.51L67.37 67.37L178.86 67.37L202.31 67.37C202.31 64.19 201.04 61.31 198.98 59.19"/><path d="M178.86 67.37L67.37 67.37L0.5 134.24L67.37 134.24L135.3 134.24C135.35 134.24 135.4 134.25 135.45 134.25C135.5 134.25 135.54 134.24 135.59 134.24C138.63 134.2 141.39 133.01 143.45 131.08L144 130.53L198.76 75.76L198.98 75.55C201.04 73.43 202.31 70.55 202.31 67.37L178.86 67.37"/></g><g fill="#fff"><path d="M133.39 197.82C138.81 197.82 140.92 194.39 140.92 190.53C140.92 186.67 138.81 183.24 133.39 183.24L123.5 183.24L123.5 197.82L133.39 197.82M117.23 177.81L133.57 177.81C142.07 177.81 147.19 183.06 147.19 190.53C147.19 198.01 142.07 203.25 133.57 203.25L123.5 203.25L123.5 220.01L117.23 220.01L117.23 177.81"/><path d="M170.1 206.69L170.1 205.96L162.26 205.96C158.28 205.96 155.69 208.01 155.69 211.21C155.69 213.98 157.98 215.85 161.36 215.85C166.9 215.85 170.1 212.29 170.1 206.69M175.94 200.42L175.94 220.01L170.1 220.01L170.1 215.06C168.65 218.32 164.79 220.49 160.21 220.49C154 220.49 149.9 216.75 149.9 211.33C149.9 205.48 154.54 201.86 161.72 201.86L168.05 201.86C169.43 201.86 170.1 201.14 170.1 200.05C170.1 196.38 167.44 193.85 162.74 193.85C158.52 193.85 155.45 196.5 155.27 199.57L149.84 199.57C150.32 193.61 155.75 189.14 162.92 189.14C170.76 189.14 175.94 193.67 175.94 200.42"/><path d="M195.89 194.69C190.34 194.69 188.54 199.63 188.54 206.26L188.54 220.01L182.69 220.01L182.69 189.63L188.54 189.63L188.54 195.47C189.92 191.44 192.33 189.63 196.61 189.63L200.29 189.63L200.29 194.69L195.89 194.69"/><path d="M223.19 206.69L223.19 205.96L215.36 205.96C211.38 205.96 208.79 208.01 208.79 211.21C208.79 213.98 211.08 215.85 214.45 215.85C220 215.85 223.19 212.29 223.19 206.69M229.04 200.42L229.04 220.01L223.19 220.01L223.19 215.06C221.75 218.32 217.89 220.49 213.31 220.49C207.1 220.49 203 216.75 203 211.33C203 205.48 207.64 201.86 214.82 201.86L221.15 201.86C222.53 201.86 223.19 201.14 223.19 200.05C223.19 196.38 220.54 193.85 215.84 193.85C211.62 193.85 208.55 196.5 208.37 199.57L202.94 199.57C203.42 193.61 208.85 189.14 216.02 189.14C223.86 189.14 229.04 193.67 229.04 200.42"/><path d="M236.09 176.91H241.94V220.01H236.09Z"/><path d="M249.95 176.91H255.8V220.01H249.95Z"/><path d="M267.67 201.56L284.91 201.56C284.55 196.92 281.42 193.85 276.41 193.85C271.65 193.85 268.58 196.5 267.67 201.56M291.06 210.12C289.98 216.39 284.49 220.49 277.02 220.49C267.61 220.49 261.77 213.07 261.77 204.64C261.77 196.14 267.07 189.14 276.41 189.14C285.82 189.14 290.82 195.84 290.82 203.55C290.82 204.33 290.76 205.3 290.7 205.84L267.49 205.84C267.97 211.57 271.71 215.49 277.02 215.49C281.48 215.49 284.37 213.56 285.22 210.12L291.06 210.12"/><path d="M297.09 176.91H302.93V220.01H297.09Z"/><path d="M334.22 204.82C334.22 198.61 330.3 194.27 324.57 194.27C318.79 194.27 314.87 198.61 314.87 204.82C314.87 211.03 318.79 215.37 324.57 215.37C330.3 215.37 334.22 211.03 334.22 204.82M308.9 204.82C308.9 195.71 315.47 189.14 324.57 189.14C333.67 189.14 340.18 195.71 340.18 204.82C340.18 213.92 333.67 220.49 324.57 220.49C315.47 220.49 308.9 213.92 308.9 204.82"/><path d="M369.05 204.82C369.05 198.43 365.38 194.27 359.71 194.27C354.1 194.27 350.43 198.43 350.43 204.82C350.43 211.21 354.1 215.37 359.71 215.37C365.38 215.37 369.05 211.21 369.05 204.82M374.48 189.63L374.48 221.45C374.48 227.84 369.84 232.3 363.21 232.3L348.56 232.3L348.56 227.42L362.6 227.42C366.1 227.42 368.63 224.77 368.63 221.09L368.63 216.15C367.18 218.74 363.33 220.49 359.05 220.49C349.7 220.49 344.46 213.86 344.46 204.82C344.46 195.77 349.7 189.14 358.99 189.14C363.03 189.14 366.76 191.01 368.63 193.67L368.63 189.63L374.48 189.63"/><path d="M395.39 194.69C389.85 194.69 388.04 199.63 388.04 206.26L388.04 220.01L382.19 220.01L382.19 189.63L388.04 189.63L388.04 195.47C389.42 191.44 391.83 189.63 396.11 189.63L399.79 189.63L399.79 194.69L395.39 194.69"/><path d="M422.7 206.69L422.7 205.96L414.86 205.96C410.88 205.96 408.29 208.01 408.29 211.21C408.29 213.98 410.58 215.85 413.96 215.85C419.5 215.85 422.7 212.29 422.7 206.69M428.54 200.42L428.54 220.01L422.7 220.01L422.7 215.06C421.25 218.32 417.39 220.49 412.81 220.49C406.6 220.49 402.5 216.75 402.5 211.33C402.5 205.48 407.14 201.86 414.32 201.86L420.65 201.86C422.03 201.86 422.7 201.14 422.7 200.05C422.7 196.38 420.04 193.85 415.34 193.85C411.12 193.85 408.05 196.5 407.87 199.57L402.44 199.57C402.92 193.61 408.35 189.14 415.52 189.14C423.36 189.14 428.54 193.67 428.54 200.42"/><path d="M435.29 189.63L441.14 189.63L441.14 195.05C442.4 191.62 445.66 189.14 450.12 189.14C455.06 189.14 458.74 191.37 459.94 195.35C461.15 191.92 465.13 189.14 469.83 189.14C476.4 189.14 480.5 193.67 480.5 200.72L480.5 220.01L474.65 220.01L474.65 202.35C474.65 197.52 472.24 194.27 468.2 194.27C463.56 194.27 460.79 197.52 460.79 202.35L460.79 220.01L454.94 220.01L454.94 202.35C454.94 197.52 452.53 194.27 448.55 194.27C443.91 194.27 441.14 197.52 441.14 202.35L441.14 220.01L435.29 220.01L435.29 189.63"/></g></svg>
